<svg xmlns="http://www.w3.org/2000/svg" viewBox="0 0 500 460" preserveAspectRatio="none"><defs><linearGradient id="land" x1="0" y1="0" x2=".7" y2="1"><stop stop-color="#136ddb"/><stop offset=".5" stop-color="#0e4b77"/><stop offset="1" stop-color="#133b38"/></linearGradient><radialGradient id="aura"><stop stop-color="#387cff" stop-opacity=".5"/><stop offset="1" stop-color="#10163f" stop-opacity="0"/></radialGradient><pattern id="grid" width="35" height="35" patternUnits="userSpaceOnUse"><path d="M35 0H0V35" fill="none" stroke="#4997ff" stroke-opacity=".13" stroke-width=".6"/></pattern><filter id="glow"><feGaussianBlur stdDeviation="5"/></filter><clipPath id="landClip"><polygon points="184.68,335.05 170.55,329.13 154.35,320.85 144.98,324.83 116.98,321.36 108.94,310.60 102.78,311.00 69.78,296.73 65.30,288.97 77.61,287.09 76.15,274.57 83.89,265.51 100.26,263.83 114.16,248.12 126.79,235.01 114.62,229.06 120.85,214.55 113.40,191.68 120.48,185.12 115.27,163.97 101.91,150.66 106.14,138.50 116.77,140.30 123.00,132.87 115.33,118.14 119.34,114.49 136.39,115.28 161.15,97.83 174.74,95.17 175.06,86.90 181.15,65.78 200.07,54.17 220.87,53.70 223.49,48.49 249.31,50.57 275.28,37.95 288.14,32.36 304.12,20.32 315.81,21.85 324.46,28.43 318.06,36.84 296.86,41.03 288.49,53.53 275.72,60.70 266.13,69.99 262.09,87.83 252.94,102.45 269.97,104.12 274.20,115.62 281.48,121.12 284.09,131.18 280.17,140.44 281.33,145.66 289.45,147.74 297.31,156.46 339.75,154.06 358.92,157.24 382.15,178.75 395.48,176.08 419.25,177.42 438.06,174.57 449.73,178.86 443.79,192.33 436.42,200.72 433.84,218.65 440.48,235.26 449.86,242.69 451.00,248.29 434.27,260.73 446.25,266.24 455.02,274.98 465.08,299.92 458.85,303.00 452.42,288.25 443.25,280.32 432.34,288.94 368.04,288.38 368.45,304.02 387.78,306.61 386.67,316.18 380.07,313.60 361.49,317.71 361.32,335.88 375.96,345.00 381.12,359.32 380.34,370.16 365.51,438.70 349.00,425.41 339.14,424.82 360.43,399.38 335.16,387.67 315.35,389.82 303.43,385.49 285.25,392.11 260.68,388.97 241.24,362.76 225.96,356.32 215.43,344.52 193.48,332.68 184.68,335.05"/></clipPath></defs><ellipse cx="260" cy="250" rx="237" ry="207" fill="url(#aura)"/><polygon points="184.68,335.05 170.55,329.13 154.35,320.85 144.98,324.83 116.98,321.36 108.94,310.60 102.78,311.00 69.78,296.73 65.30,288.97 77.61,287.09 76.15,274.57 83.89,265.51 100.26,263.83 114.16,248.12 126.79,235.01 114.62,229.06 120.85,214.55 113.40,191.68 120.48,185.12 115.27,163.97 101.91,150.66 106.14,138.50 116.77,140.30 123.00,132.87 115.33,118.14 119.34,114.49 136.39,115.28 161.15,97.83 174.74,95.17 175.06,86.90 181.15,65.78 200.07,54.17 220.87,53.70 223.49,48.49 249.31,50.57 275.28,37.95 288.14,32.36 304.12,20.32 315.81,21.85 324.46,28.43 318.06,36.84 296.86,41.03 288.49,53.53 275.72,60.70 266.13,69.99 262.09,87.83 252.94,102.45 269.97,104.12 274.20,115.62 281.48,121.12 284.09,131.18 280.17,140.44 281.33,145.66 289.45,147.74 297.31,156.46 339.75,154.06 358.92,157.24 382.15,178.75 395.48,176.08 419.25,177.42 438.06,174.57 449.73,178.86 443.79,192.33 436.42,200.72 433.84,218.65 440.48,235.26 449.86,242.69 451.00,248.29 434.27,260.73 446.25,266.24 455.02,274.98 465.08,299.92 458.85,303.00 452.42,288.25 443.25,280.32 432.34,288.94 368.04,288.38 368.45,304.02 387.78,306.61 386.67,316.18 380.07,313.60 361.49,317.71 361.32,335.88 375.96,345.00 381.12,359.32 380.34,370.16 365.51,438.70 349.00,425.41 339.14,424.82 360.43,399.38 335.16,387.67 315.35,389.82 303.43,385.49 285.25,392.11 260.68,388.97 241.24,362.76 225.96,356.32 215.43,344.52 193.48,332.68 184.68,335.05" transform="translate(0,12)" fill="#091e45" stroke="#2780d6" stroke-opacity=".24" stroke-width="1.1"/><polygon points="184.68,335.05 170.55,329.13 154.35,320.85 144.98,324.83 116.98,321.36 108.94,310.60 102.78,311.00 69.78,296.73 65.30,288.97 77.61,287.09 76.15,274.57 83.89,265.51 100.26,263.83 114.16,248.12 126.79,235.01 114.62,229.06 120.85,214.55 113.40,191.68 120.48,185.12 115.27,163.97 101.91,150.66 106.14,138.50 116.77,140.30 123.00,132.87 115.33,118.14 119.34,114.49 136.39,115.28 161.15,97.83 174.74,95.17 175.06,86.90 181.15,65.78 200.07,54.17 220.87,53.70 223.49,48.49 249.31,50.57 275.28,37.95 288.14,32.36 304.12,20.32 315.81,21.85 324.46,28.43 318.06,36.84 296.86,41.03 288.49,53.53 275.72,60.70 266.13,69.99 262.09,87.83 252.94,102.45 269.97,104.12 274.20,115.62 281.48,121.12 284.09,131.18 280.17,140.44 281.33,145.66 289.45,147.74 297.31,156.46 339.75,154.06 358.92,157.24 382.15,178.75 395.48,176.08 419.25,177.42 438.06,174.57 449.73,178.86 443.79,192.33 436.42,200.72 433.84,218.65 440.48,235.26 449.86,242.69 451.00,248.29 434.27,260.73 446.25,266.24 455.02,274.98 465.08,299.92 458.85,303.00 452.42,288.25 443.25,280.32 432.34,288.94 368.04,288.38 368.45,304.02 387.78,306.61 386.67,316.18 380.07,313.60 361.49,317.71 361.32,335.88 375.96,345.00 381.12,359.32 380.34,370.16 365.51,438.70 349.00,425.41 339.14,424.82 360.43,399.38 335.16,387.67 315.35,389.82 303.43,385.49 285.25,392.11 260.68,388.97 241.24,362.76 225.96,356.32 215.43,344.52 193.48,332.68 184.68,335.05" transform="translate(0,10)" fill="#091e45" stroke="#2780d6" stroke-opacity=".24" stroke-width="1.1"/><polygon points="184.68,335.05 170.55,329.13 154.35,320.85 144.98,324.83 116.98,321.36 108.94,310.60 102.78,311.00 69.78,296.73 65.30,288.97 77.61,287.09 76.15,274.57 83.89,265.51 100.26,263.83 114.16,248.12 126.79,235.01 114.62,229.06 120.85,214.55 113.40,191.68 120.48,185.12 115.27,163.97 101.91,150.66 106.14,138.50 116.77,140.30 123.00,132.87 115.33,118.14 119.34,114.49 136.39,115.28 161.15,97.83 174.74,95.17 175.06,86.90 181.15,65.78 200.07,54.17 220.87,53.70 223.49,48.49 249.31,50.57 275.28,37.95 288.14,32.36 304.12,20.32 315.81,21.85 324.46,28.43 318.06,36.84 296.86,41.03 288.49,53.53 275.72,60.70 266.13,69.99 262.09,87.83 252.94,102.45 269.97,104.12 274.20,115.62 281.48,121.12 284.09,131.18 280.17,140.44 281.33,145.66 289.45,147.74 297.31,156.46 339.75,154.06 358.92,157.24 382.15,178.75 395.48,176.08 419.25,177.42 438.06,174.57 449.73,178.86 443.79,192.33 436.42,200.72 433.84,218.65 440.48,235.26 449.86,242.69 451.00,248.29 434.27,260.73 446.25,266.24 455.02,274.98 465.08,299.92 458.85,303.00 452.42,288.25 443.25,280.32 432.34,288.94 368.04,288.38 368.45,304.02 387.78,306.61 386.67,316.18 380.07,313.60 361.49,317.71 361.32,335.88 375.96,345.00 381.12,359.32 380.34,370.16 365.51,438.70 349.00,425.41 339.14,424.82 360.43,399.38 335.16,387.67 315.35,389.82 303.43,385.49 285.25,392.11 260.68,388.97 241.24,362.76 225.96,356.32 215.43,344.52 193.48,332.68 184.68,335.05" transform="translate(0,8)" fill="#091e45" stroke="#2780d6" stroke-opacity=".24" stroke-width="1.1"/><polygon points="184.68,335.05 170.55,329.13 154.35,320.85 144.98,324.83 116.98,321.36 108.94,310.60 102.78,311.00 69.78,296.73 65.30,288.97 77.61,287.09 76.15,274.57 83.89,265.51 100.26,263.83 114.16,248.12 126.79,235.01 114.62,229.06 120.85,214.55 113.40,191.68 120.48,185.12 115.27,163.97 101.91,150.66 106.14,138.50 116.77,140.30 123.00,132.87 115.33,118.14 119.34,114.49 136.39,115.28 161.15,97.83 174.74,95.17 175.06,86.90 181.15,65.78 200.07,54.17 220.87,53.70 223.49,48.49 249.31,50.57 275.28,37.95 288.14,32.36 304.12,20.32 315.81,21.85 324.46,28.43 318.06,36.84 296.86,41.03 288.49,53.53 275.72,60.70 266.13,69.99 262.09,87.83 252.94,102.45 269.97,104.12 274.20,115.62 281.48,121.12 284.09,131.18 280.17,140.44 281.33,145.66 289.45,147.74 297.31,156.46 339.75,154.06 358.92,157.24 382.15,178.75 395.48,176.08 419.25,177.42 438.06,174.57 449.73,178.86 443.79,192.33 436.42,200.72 433.84,218.65 440.48,235.26 449.86,242.69 451.00,248.29 434.27,260.73 446.25,266.24 455.02,274.98 465.08,299.92 458.85,303.00 452.42,288.25 443.25,280.32 432.34,288.94 368.04,288.38 368.45,304.02 387.78,306.61 386.67,316.18 380.07,313.60 361.49,317.71 361.32,335.88 375.96,345.00 381.12,359.32 380.34,370.16 365.51,438.70 349.00,425.41 339.14,424.82 360.43,399.38 335.16,387.67 315.35,389.82 303.43,385.49 285.25,392.11 260.68,388.97 241.24,362.76 225.96,356.32 215.43,344.52 193.48,332.68 184.68,335.05" transform="translate(0,6)" fill="#091e45" stroke="#2780d6" stroke-opacity=".24" stroke-width="1.1"/><polygon points="184.68,335.05 170.55,329.13 154.35,320.85 144.98,324.83 116.98,321.36 108.94,310.60 102.78,311.00 69.78,296.73 65.30,288.97 77.61,287.09 76.15,274.57 83.89,265.51 100.26,263.83 114.16,248.12 126.79,235.01 114.62,229.06 120.85,214.55 113.40,191.68 120.48,185.12 115.27,163.97 101.91,150.66 106.14,138.50 116.77,140.30 123.00,132.87 115.33,118.14 119.34,114.49 136.39,115.28 161.15,97.83 174.74,95.17 175.06,86.90 181.15,65.78 200.07,54.17 220.87,53.70 223.49,48.49 249.31,50.57 275.28,37.95 288.14,32.36 304.12,20.32 315.81,21.85 324.46,28.43 318.06,36.84 296.86,41.03 288.49,53.53 275.72,60.70 266.13,69.99 262.09,87.83 252.94,102.45 269.97,104.12 274.20,115.62 281.48,121.12 284.09,131.18 280.17,140.44 281.33,145.66 289.45,147.74 297.31,156.46 339.75,154.06 358.92,157.24 382.15,178.75 395.48,176.08 419.25,177.42 438.06,174.57 449.73,178.86 443.79,192.33 436.42,200.72 433.84,218.65 440.48,235.26 449.86,242.69 451.00,248.29 434.27,260.73 446.25,266.24 455.02,274.98 465.08,299.92 458.85,303.00 452.42,288.25 443.25,280.32 432.34,288.94 368.04,288.38 368.45,304.02 387.78,306.61 386.67,316.18 380.07,313.60 361.49,317.71 361.32,335.88 375.96,345.00 381.12,359.32 380.34,370.16 365.51,438.70 349.00,425.41 339.14,424.82 360.43,399.38 335.16,387.67 315.35,389.82 303.43,385.49 285.25,392.11 260.68,388.97 241.24,362.76 225.96,356.32 215.43,344.52 193.48,332.68 184.68,335.05" transform="translate(0,4)" fill="#091e45" stroke="#2780d6" stroke-opacity=".24" stroke-width="1.1"/><polygon points="184.68,335.05 170.55,329.13 154.35,320.85 144.98,324.83 116.98,321.36 108.94,310.60 102.78,311.00 69.78,296.73 65.30,288.97 77.61,287.09 76.15,274.57 83.89,265.51 100.26,263.83 114.16,248.12 126.79,235.01 114.62,229.06 120.85,214.55 113.40,191.68 120.48,185.12 115.27,163.97 101.91,150.66 106.14,138.50 116.77,140.30 123.00,132.87 115.33,118.14 119.34,114.49 136.39,115.28 161.15,97.83 174.74,95.17 175.06,86.90 181.15,65.78 200.07,54.17 220.87,53.70 223.49,48.49 249.31,50.57 275.28,37.95 288.14,32.36 304.12,20.32 315.81,21.85 324.46,28.43 318.06,36.84 296.86,41.03 288.49,53.53 275.72,60.70 266.13,69.99 262.09,87.83 252.94,102.45 269.97,104.12 274.20,115.62 281.48,121.12 284.09,131.18 280.17,140.44 281.33,145.66 289.45,147.74 297.31,156.46 339.75,154.06 358.92,157.24 382.15,178.75 395.48,176.08 419.25,177.42 438.06,174.57 449.73,178.86 443.79,192.33 436.42,200.72 433.84,218.65 440.48,235.26 449.86,242.69 451.00,248.29 434.27,260.73 446.25,266.24 455.02,274.98 465.08,299.92 458.85,303.00 452.42,288.25 443.25,280.32 432.34,288.94 368.04,288.38 368.45,304.02 387.78,306.61 386.67,316.18 380.07,313.60 361.49,317.71 361.32,335.88 375.96,345.00 381.12,359.32 380.34,370.16 365.51,438.70 349.00,425.41 339.14,424.82 360.43,399.38 335.16,387.67 315.35,389.82 303.43,385.49 285.25,392.11 260.68,388.97 241.24,362.76 225.96,356.32 215.43,344.52 193.48,332.68 184.68,335.05" transform="translate(0,2)" fill="#091e45" stroke="#2780d6" stroke-opacity=".24" stroke-width="1.1"/><polygon points="184.68,335.05 170.55,329.13 154.35,320.85 144.98,324.83 116.98,321.36 108.94,310.60 102.78,311.00 69.78,296.73 65.30,288.97 77.61,287.09 76.15,274.57 83.89,265.51 100.26,263.83 114.16,248.12 126.79,235.01 114.62,229.06 120.85,214.55 113.40,191.68 120.48,185.12 115.27,163.97 101.91,150.66 106.14,138.50 116.77,140.30 123.00,132.87 115.33,118.14 119.34,114.49 136.39,115.28 161.15,97.83 174.74,95.17 175.06,86.90 181.15,65.78 200.07,54.17 220.87,53.70 223.49,48.49 249.31,50.57 275.28,37.95 288.14,32.36 304.12,20.32 315.81,21.85 324.46,28.43 318.06,36.84 296.86,41.03 288.49,53.53 275.72,60.70 266.13,69.99 262.09,87.83 252.94,102.45 269.97,104.12 274.20,115.62 281.48,121.12 284.09,131.18 280.17,140.44 281.33,145.66 289.45,147.74 297.31,156.46 339.75,154.06 358.92,157.24 382.15,178.75 395.48,176.08 419.25,177.42 438.06,174.57 449.73,178.86 443.79,192.33 436.42,200.72 433.84,218.65 440.48,235.26 449.86,242.69 451.00,248.29 434.27,260.73 446.25,266.24 455.02,274.98 465.08,299.92 458.85,303.00 452.42,288.25 443.25,280.32 432.34,288.94 368.04,288.38 368.45,304.02 387.78,306.61 386.67,316.18 380.07,313.60 361.49,317.71 361.32,335.88 375.96,345.00 381.12,359.32 380.34,370.16 365.51,438.70 349.00,425.41 339.14,424.82 360.43,399.38 335.16,387.67 315.35,389.82 303.43,385.49 285.25,392.11 260.68,388.97 241.24,362.76 225.96,356.32 215.43,344.52 193.48,332.68 184.68,335.05" fill="url(#land)" stroke="#77baff" stroke-width="1.2"/><g clip-path="url(#landClip)"><rect width="500" height="460" fill="url(#grid)"/><path d="M80 90 Q210 40 470 105" fill="none" stroke="#52a0b8" stroke-opacity=".12" stroke-width="1"/><path d="M80 122 Q210 72 470 137" fill="none" stroke="#52a0b8" stroke-opacity=".12" stroke-width="1"/><path d="M80 154 Q210 104 470 169" fill="none" stroke="#52a0b8" stroke-opacity=".12" stroke-width="1"/><path d="M80 186 Q210 136 470 201" fill="none" stroke="#52a0b8" stroke-opacity=".12" stroke-width="1"/><path d="M80 218 Q210 168 470 233" fill="none" stroke="#52a0b8" stroke-opacity=".12" stroke-width="1"/><path d="M80 250 Q210 200 470 265" fill="none" stroke="#52a0b8" stroke-opacity=".12" stroke-width="1"/><path d="M80 282 Q210 232 470 297" fill="none" stroke="#52a0b8" stroke-opacity=".12" stroke-width="1"/><path d="M80 314 Q210 264 470 329" fill="none" stroke="#52a0b8" stroke-opacity=".12" stroke-width="1"/><path d="M80 346 Q210 296 470 361" fill="none" stroke="#52a0b8" stroke-opacity=".12" stroke-width="1"/><path d="M80 378 Q210 328 470 393" fill="none" stroke="#52a0b8" stroke-opacity=".12" stroke-width="1"/><circle cx="227.6" cy="213.5" r="28" fill="#f337f4" opacity=".45" filter="url(#glow)"/><circle cx="227.6" cy="213.5" r="3" fill="white"/><circle cx="177.8" cy="175.2" r="28" fill="#9c47ff" opacity=".45" filter="url(#glow)"/><circle cx="177.8" cy="175.2" r="3" fill="white"/><circle cx="146.4" cy="245.0" r="28" fill="#dc3cf0" opacity=".45" filter="url(#glow)"/><circle cx="146.4" cy="245.0" r="3" fill="white"/><circle cx="203.7" cy="57.2" r="28" fill="#23b9ff" opacity=".45" filter="url(#glow)"/><circle cx="203.7" cy="57.2" r="3" fill="white"/><circle cx="181.2" cy="71.5" r="28" fill="#9b4aff" opacity=".45" filter="url(#glow)"/><circle cx="181.2" cy="71.5" r="3" fill="white"/><circle cx="259.0" cy="153.3" r="28" fill="#238bff" opacity=".45" filter="url(#glow)"/><circle cx="259.0" cy="153.3" r="3" fill="white"/><circle cx="174" cy="210.9" r="28" fill="#62dfff" opacity=".45" filter="url(#glow)"/><circle cx="174" cy="210.9" r="3" fill="white"/></g></svg>